# xmcd
#
# Track frame offsets: 
#        150
#        17097
#        33050
#        57957
#        74637
#        97850
#        120035
#        138945
#        156500
#        181320
#        206862
#        226330
#        247570
#        275605
#
# Disc length: 3927 seconds
#
# Revision: 6
# Processed by: cddbd v1.5.2PL0 Copyright (c) Steve Scherf et al.
# Submitted via: ExactAudioCopy v1.0b4
#
DISCID=b40f550e
DTITLE=Luther Allison - Reckless
DYEAR=1997
DGENRE=Blues
TTITLE0=Low Down And Dirty
TTITLE1=You Can Run But You Can't Hide
TTITLE2=Living In The House Of The Blues
TTITLE3=You Can, You Can
TTITLE4=Will It Ever Change?
TTITLE5=Just As I Am
TTITLE6=There Comes A Time
TTITLE7=Drowning At The Bottom
TTITLE8=Playin' A Losing Game
TTITLE9=It's A Blues Thing
TTITLE10=Cancel My Check
TTITLE11=Pain In The Streets
TTITLE12=You're Gonna Make Me Cry
TTITLE13=I'm Back
EXTD=
EXTT0=
EXTT1=
EXTT2=
EXTT3=
EXTT4=
EXTT5=
EXTT6=
EXTT7=
EXTT8=
EXTT9=
EXTT10=
EXTT11=
EXTT12=
EXTT13=
PLAYORDER=
